<?xml version="1.0" encoding="UTF-8"?>
<!DOCTYPE svg PUBLIC "-//W3C//DTD SVG 1.1//EN" "http://www.w3.org/Graphics/SVG/1.1/DTD/svg11.dtd">
<!-- Creator: CorelDRAW 2017 -->
<svg xmlns="http://www.w3.org/2000/svg" xml:space="preserve" width="11in" height="8.5in" version="1.1" style="shape-rendering:geometricPrecision; text-rendering:geometricPrecision; image-rendering:optimizeQuality; fill-rule:evenodd; clip-rule:evenodd"
viewBox="0 0 11000 8500"
 xmlns:xlink="http://www.w3.org/1999/xlink">
 <defs>
  <style type="text/css">
   <![CDATA[
    .str1 {stroke:#4A2602;stroke-width:20.8307}
    .str0 {stroke:#201E1E;stroke-width:3}
    .fil0 {fill:#3B1F03;fill-rule:nonzero}
   ]]>
  </style>
 </defs>
 <g id="Layer_x0020_1">
  <metadata id="CorelCorpID_0Corel-Layer"/>
  <g id="_2433148779280">
   <g>
    <path class="fil0 str0" d="M798 4715c74,0 145,-20 214,-58 69,-39 132,-88 190,-151 57,-62 106,-130 146,-203 44,-79 89,-165 130,-255 41,-90 82,-200 125,-333 5,-14 6,-28 6,-41 0,-3 -3,-6 -8,-10 -5,-5 -9,-6 -14,-6 -8,0 -14,6 -18,18l-5 8c-46,149 -87,262 -124,338 -114,266 -244,450 -387,555 -72,52 -155,83 -249,90 -37,0 -72,-9 -104,-27 -53,-31 -94,-72 -122,-125 -28,-53 -46,-113 -55,-179 -9,-65 -14,-132 -14,-198 8,-165 36,-345 84,-541 47,-195 115,-378 199,-548 95,-175 185,-262 274,-262 23,0 46,8 67,24 21,17 37,41 45,73 13,43 19,88 19,136 0,175 -52,339 -158,490 -9,14 -20,27 -31,40 -10,12 -26,20 -43,24 -3,2 -6,3 -7,7 -2,5 -3,8 -3,11 0,6 3,10 9,15 6,5 13,6 20,6 21,-5 39,-15 51,-29 69,-78 121,-168 156,-267 35,-99 52,-198 52,-297 0,-41 -3,-82 -7,-123 -13,-75 -41,-131 -87,-172 -46,-41 -104,-61 -173,-61 -98,0 -197,50 -300,149 -90,89 -165,194 -225,314 -60,121 -102,247 -132,378 -29,131 -44,255 -44,369 0,93 9,187 29,284 20,96 50,184 95,268 44,84 100,154 167,208 66,53 144,81 232,81zm1111 65c10,0 21,-2 33,-5 67,-20 120,-61 158,-123 33,-49 60,-102 83,-158 46,-110 85,-222 115,-337l9 -31c11,-31 18,-62 22,-97 0,-7 -1,-14 -2,-17 -1,-3 -5,-4 -12,-5 -7,0 -12,6 -16,18 -20,86 -43,170 -70,252 -29,96 -66,189 -110,279 -30,65 -65,115 -105,151 -22,20 -47,31 -71,31 -54,0 -81,-53 -81,-159 3,-90 13,-178 26,-263 14,-85 30,-170 48,-254 21,-98 32,-154 32,-169 0,-35 -14,-66 -40,-95 -28,-28 -59,-45 -97,-52 -33,-4 -66,-9 -98,-17 -31,-3 -55,-20 -70,-50 -5,-14 -16,-25 -31,-34 -15,-9 -30,-13 -44,-13 -22,0 -41,8 -57,22 -16,15 -24,33 -24,53 0,20 8,38 21,55 30,27 65,41 104,41l3 0 21 2c0,9 -1,16 -2,20 -11,60 -35,123 -74,191 -1,2 -2,4 -3,6 -1,3 -3,7 -7,10 -5,7 -8,13 -8,17 0,3 2,6 5,9 3,3 7,4 12,4 5,0 9,-3 14,-9 5,-8 10,-17 15,-25 35,-61 57,-112 68,-152l13 -71c11,-1 20,-2 30,-2 20,0 35,7 46,21 -26,95 -47,179 -60,250 -15,72 -22,153 -22,244 0,124 19,231 58,318 18,40 40,74 69,101 28,28 60,42 99,42zm630 -373c48,0 92,-16 133,-47 73,-58 130,-158 169,-298 1,-4 2,-9 2,-14 0,-3 0,-7 0,-10 0,-4 -1,-6 -4,-9 -2,-2 -5,-3 -9,-3 -7,0 -12,3 -14,9 -2,8 -4,14 -5,20 -2,6 -3,12 -5,18 -37,124 -88,211 -154,263 -31,25 -64,36 -99,36 -37,0 -64,-15 -81,-43 -17,-29 -25,-63 -25,-106 0,-59 9,-118 27,-176 6,-3 12,-7 17,-8 70,-31 122,-81 153,-151 11,-22 16,-48 18,-77 0,-34 -10,-61 -33,-83 -22,-22 -50,-33 -81,-33 -34,0 -67,12 -98,36 -31,24 -56,53 -77,87 -54,88 -80,179 -80,272 0,52 9,102 29,151 19,49 47,88 84,119 36,31 82,47 135,47zm-51 -402c0,-4 0,-6 -1,-9l43 -127c7,-14 14,-29 24,-44 12,-22 26,-32 42,-32 20,0 31,13 31,39 0,8 -1,14 -3,20 -24,67 -67,118 -132,151l-5 1zm852 674c20,0 38,-8 54,-22 39,-35 76,-94 112,-176 59,-141 105,-281 139,-424 2,-8 3,-16 3,-25l1 -4c0,-3 -1,-5 -4,-7 -2,-2 -5,-3 -7,-3 -8,0 -13,2 -15,8 -3,7 -5,12 -7,18l-15 53c-19,73 -40,145 -63,215 -23,71 -54,141 -91,210 -13,25 -24,43 -35,56 -10,14 -25,30 -44,48 -7,4 -14,8 -20,8 -7,0 -12,-3 -18,-11 -5,-6 -9,-14 -10,-21 -8,-25 -11,-53 -11,-79 0,-42 4,-83 13,-124 22,-144 53,-285 90,-425l43 -170c4,-17 6,-34 6,-51 0,-49 -19,-74 -58,-74 -25,0 -50,13 -73,38 -33,35 -56,75 -73,119l-12 29c-1,1 -2,3 -2,5 -1,2 -2,4 -3,5 -2,2 -4,3 -8,4l-6 -22c-3,-16 -8,-30 -13,-42 -4,-13 -14,-26 -26,-43 -13,-16 -26,-26 -41,-33 -14,-5 -32,-8 -54,-9 -54,0 -108,32 -164,96 -89,96 -137,212 -142,351 0,35 5,71 16,106 10,35 26,65 49,89 21,23 49,35 82,35 34,-1 64,-10 88,-30 33,-23 59,-45 76,-69 21,-26 42,-58 60,-93 2,-4 4,-6 8,-6l3 1 -2 67c0,75 10,150 31,223 6,27 16,55 29,82 13,27 29,51 48,69 18,19 40,29 64,29zm-348 -333c-16,0 -25,-3 -28,-10 -2,-5 -4,-18 -6,-36 0,-22 4,-44 12,-68l3 -8c32,-135 82,-260 154,-372 7,-17 17,-26 27,-26 5,0 9,2 14,7 27,36 41,80 41,131l-4 25c-2,17 -5,34 -8,50 -20,75 -51,145 -92,209 -20,32 -46,59 -74,83 -10,9 -23,15 -38,15zm867 458c50,0 101,-31 152,-93 22,-27 41,-55 57,-85 94,-164 169,-339 222,-528l3 -8c5,-18 8,-33 9,-44 -1,-5 -2,-10 -3,-15 -2,-3 -6,-5 -12,-5 -5,0 -8,1 -10,2 -2,2 -4,5 -5,10l-1 5c-3,18 -8,37 -14,56 -26,87 -56,171 -89,255 -33,84 -74,165 -122,244 -25,45 -57,87 -94,125 -33,31 -59,47 -79,47 -20,0 -37,-10 -53,-30 -16,-20 -26,-41 -34,-65 -9,-30 -15,-55 -17,-77 -3,-28 -4,-60 -4,-95 0,-97 10,-193 31,-289 33,-166 69,-330 108,-494 29,-104 52,-208 70,-315 0,-3 1,-5 2,-8 1,-3 2,-5 3,-8 15,0 29,1 42,3 73,11 140,19 199,25 58,5 126,9 202,10 71,0 128,-8 173,-25 21,-9 41,-21 59,-39 18,-18 27,-38 27,-61 -1,-9 -2,-18 -5,-25 -3,-8 -8,-10 -18,-10 -5,1 -9,5 -12,12 -1,0 -1,0 -1,1 1,5 2,9 3,13 1,3 1,8 1,12 0,16 -7,30 -21,42 -15,13 -30,22 -46,29 -27,9 -52,15 -78,18 -26,3 -55,5 -85,5 -102,0 -229,-10 -380,-33 -3,-1 -8,-1 -12,-1 -15,-1 -30,-4 -46,-9l2 -62 -1 -31c-1,-22 -8,-41 -20,-57 -12,-16 -27,-25 -47,-25 -25,0 -46,14 -64,40l-5 8c-18,28 -36,60 -52,94l-24 0c-88,-8 -153,-15 -196,-18 -43,-3 -89,-4 -136,-4 -113,0 -212,13 -295,39 -49,16 -92,38 -129,66 -12,10 -17,17 -17,23 0,4 2,7 5,9 3,2 8,3 12,3 2,0 4,-1 6,-2 1,-1 3,-2 4,-3 1,-1 3,-3 5,-4 26,-20 53,-36 83,-48 63,-23 118,-38 166,-43 49,-5 107,-9 176,-9 104,0 211,8 321,23l1 7c0,5 -1,11 -3,16l-3 6c-46,130 -84,268 -115,415 -32,147 -48,291 -48,431 0,133 22,263 67,387 12,33 26,62 44,90 17,28 37,50 60,69 22,18 49,27 78,27zm578 -331c32,0 60,-9 85,-30 24,-19 46,-42 64,-67 61,-80 106,-184 135,-312l2 -18c0,-5 -1,-10 -1,-14 0,-4 -4,-6 -13,-8 -4,0 -7,1 -9,4 -4,7 -12,33 -21,73l-14 50c-21,72 -54,138 -98,199 -17,21 -35,41 -54,59 -20,19 -41,28 -64,28 -41,0 -60,-30 -60,-89 3,-39 16,-108 37,-208l58 -245c7,-22 10,-51 10,-84 0,-17 -1,-33 -5,-48 -15,-33 -36,-49 -63,-49 -16,0 -31,5 -46,17 -15,12 -26,27 -35,45 -57,117 -87,254 -87,407 0,50 8,100 24,149 6,23 17,45 31,66 13,21 31,39 51,53 21,14 47,20 75,20zm28 -807c18,0 34,-7 48,-17 13,-12 19,-25 19,-41 0,-16 -7,-28 -19,-40 -14,-12 -30,-17 -48,-17 -18,0 -34,5 -46,17 -14,12 -20,24 -20,40 0,16 6,30 20,41 13,10 29,17 46,17zm421 741c25,0 52,-11 78,-33l4 -4c43,-40 81,-85 109,-138 9,-18 21,-37 35,-55 25,17 43,27 54,32 14,6 32,9 54,9 53,0 101,-20 142,-61 30,-31 51,-69 64,-110l1 -6c0,-4 -1,-8 -4,-12 -3,-3 -7,-5 -12,-5 -4,0 -8,2 -10,6l-12 26c-33,83 -88,126 -166,129 -21,0 -37,-4 -47,-14 -9,-9 -18,-24 -27,-42l-8 -14 30 -73c56,-129 85,-249 85,-361 0,-116 -30,-174 -89,-174 -31,0 -60,16 -90,48 -35,39 -61,85 -77,136 -16,52 -23,103 -23,151 0,52 8,106 25,159 17,54 42,100 77,141 2,2 3,3 4,5 1,2 2,4 3,6 -20,41 -40,77 -60,106 -20,28 -46,58 -80,87 -12,8 -24,14 -33,14 -17,0 -29,-10 -34,-30 -6,-19 -9,-37 -9,-54 2,-36 5,-69 8,-100 5,-47 8,-92 8,-137 0,-41 -8,-74 -24,-96 -19,-23 -42,-35 -68,-35 -20,0 -38,7 -56,21 -20,20 -34,44 -38,72 -5,27 -7,54 -7,79 0,93 27,179 82,258 13,19 30,35 50,49 21,14 41,20 63,20zm244 -354l-6 -1c-1,-14 -2,-24 -2,-32 0,-89 20,-211 57,-366l2 -9c2,-15 8,-29 15,-41l3 -1c3,0 4,1 5,2 1,2 2,3 3,4 0,1 1,2 1,3 10,20 14,42 15,64 0,61 -8,124 -24,187 -17,65 -38,124 -64,179 -1,4 -3,8 -5,10zm509 354c48,0 92,-16 133,-47 73,-58 130,-158 169,-298 1,-4 2,-9 2,-14 0,-3 0,-7 0,-10 0,-4 -1,-6 -4,-9 -2,-2 -5,-3 -9,-3 -7,0 -12,3 -14,9 -2,8 -4,14 -5,20 -2,6 -3,12 -5,18 -37,124 -88,211 -154,263 -31,25 -64,36 -99,36 -37,0 -64,-15 -81,-43 -17,-29 -25,-63 -25,-106 0,-59 9,-118 27,-176 6,-3 12,-7 17,-8 70,-31 122,-81 153,-151 11,-22 16,-48 18,-77 0,-34 -10,-61 -33,-83 -22,-22 -50,-33 -81,-33 -34,0 -67,12 -98,36 -31,24 -56,53 -77,87 -54,88 -80,179 -80,272 0,52 9,102 29,151 19,49 47,88 84,119 36,31 82,47 135,47zm-51 -402c0,-4 0,-6 -1,-9l43 -127c7,-14 14,-29 24,-44 12,-22 26,-32 42,-32 20,0 31,13 31,39 0,8 -1,14 -3,20 -24,67 -67,118 -132,151l-5 1z"/>
    <path class="fil0 str0" d="M6420 4862c73,0 144,-18 214,-56 69,-38 130,-83 184,-137 100,-100 178,-209 236,-329 58,-119 103,-247 134,-382 42,-164 66,-330 72,-497 2,-98 6,-194 10,-292 2,-32 4,-64 4,-96 0,-26 -4,-45 -11,-53 -8,-8 -26,-14 -50,-15 -109,-10 -193,-17 -255,-22 -53,-3 -113,-5 -177,-5 -62,0 -124,4 -186,10 -68,8 -130,29 -188,62 -54,30 -81,64 -81,104 0,22 11,44 33,65 7,8 14,11 21,11 3,0 8,-1 11,-4 4,-2 5,-6 5,-9 0,-5 -1,-9 -5,-14 -4,-5 -8,-9 -11,-15 -5,-5 -9,-11 -13,-16 -4,-6 -7,-13 -7,-20 0,-13 5,-26 18,-39 11,-13 25,-24 41,-33 37,-22 76,-36 118,-46 40,-9 82,-15 124,-18 43,-3 84,-4 127,-4 81,0 161,3 243,11 15,0 28,2 36,8 1,12 2,28 2,47 0,55 -3,130 -11,225 -18,231 -38,383 -57,459 -31,4 -59,8 -84,10 -26,2 -53,6 -83,11 -208,36 -389,129 -543,277 -124,123 -187,271 -187,445 1,47 6,89 15,124 9,36 27,74 53,113 31,44 66,74 105,92 39,17 86,27 142,29zm-61 -94c-68,0 -122,-29 -164,-86 -18,-26 -31,-57 -40,-92 -9,-35 -13,-68 -13,-100 0,-27 2,-56 8,-85 35,-165 122,-298 257,-399 66,-52 137,-92 214,-120l67 -24c32,-13 66,-23 98,-33 54,-14 108,-23 164,-28l28 -2 18 2c-33,183 -84,353 -153,510 -53,121 -120,224 -200,310 -94,99 -188,147 -283,147zm1262 -611c48,0 92,-16 133,-47 73,-58 130,-158 169,-298 1,-4 2,-9 2,-14 0,-3 0,-7 0,-10 0,-4 -1,-6 -4,-9 -2,-2 -5,-3 -9,-3 -7,0 -12,3 -14,9 -2,8 -4,14 -5,20 -2,6 -3,12 -5,18 -37,124 -88,211 -154,263 -31,25 -64,36 -99,36 -37,0 -64,-15 -81,-43 -17,-29 -25,-63 -25,-106 0,-59 9,-118 27,-176 6,-3 12,-7 17,-8 70,-31 122,-81 153,-151 11,-22 16,-48 18,-77 0,-34 -10,-61 -33,-83 -22,-22 -50,-33 -81,-33 -34,0 -67,12 -98,36 -31,24 -56,53 -77,87 -54,88 -80,179 -80,272 0,52 9,102 29,151 19,49 47,88 84,119 36,31 82,47 135,47zm-51 -402c0,-4 0,-6 -1,-9l43 -127c7,-14 14,-29 24,-44 12,-22 26,-32 42,-32 20,0 31,13 31,39 0,8 -1,14 -3,20 -24,67 -67,118 -132,151l-5 1zm823 783c32,0 59,-13 85,-38 25,-25 48,-54 67,-87 61,-102 109,-212 143,-330 1,-3 2,-7 3,-10 2,-3 3,-6 4,-9l15 -1c52,0 97,-18 133,-55 47,-51 88,-110 120,-180 7,-10 10,-23 10,-40 -2,-6 -7,-10 -12,-10 -10,1 -16,6 -19,16 -24,65 -59,122 -106,174 -36,40 -70,59 -103,59 -9,0 -18,-1 -27,-5l0 -5c0,-13 2,-24 7,-36l4 -12c46,-150 69,-282 69,-397 0,-30 -2,-62 -7,-97 -5,-35 -14,-65 -26,-91 -13,-24 -31,-37 -54,-37 -18,0 -36,7 -54,22 -18,15 -34,32 -49,53 -15,20 -25,40 -34,58 -40,85 -60,173 -60,266 1,41 4,77 12,109 8,31 20,65 41,99 21,42 54,73 96,94l12 8 -2 13c-27,97 -64,190 -112,277 -21,39 -46,75 -75,108 -22,25 -42,38 -60,38 -20,0 -36,-11 -50,-32 -24,-39 -37,-93 -37,-162 0,-15 1,-31 2,-46 14,-144 39,-290 74,-439l21 -98 3 -18c10,-36 14,-70 14,-101 0,-25 -6,-47 -20,-65 -13,-18 -30,-28 -51,-28 -16,0 -32,7 -48,18 -15,13 -26,28 -35,48 -14,32 -28,63 -39,95 -17,48 -29,98 -35,149 -5,35 -16,69 -33,99 -26,51 -54,89 -86,113 -14,10 -25,16 -35,16 -19,0 -29,-20 -29,-58 0,-27 3,-54 9,-80l31 -166c3,-18 5,-36 5,-54 0,-20 -8,-36 -21,-48 -14,-13 -30,-19 -48,-19 -16,0 -32,6 -46,19 -14,13 -24,26 -31,42 -26,56 -39,112 -39,168 0,34 5,70 17,107 12,39 27,72 50,100 21,27 49,40 81,40 21,0 41,-6 61,-20 26,-19 47,-41 59,-66 5,-9 17,-25 34,-47 0,22 -1,42 -2,58 -1,16 -2,36 -2,60 0,88 8,166 25,236 21,89 54,152 98,193 23,22 51,32 82,32zm282 -543c-15,-17 -24,-34 -27,-52 -2,-18 -4,-33 -4,-43 -1,-10 -2,-22 -2,-35l0 -23c0,-61 5,-122 16,-183l5 -28c4,-34 12,-68 20,-104 9,-36 21,-72 38,-108 10,8 18,21 22,39l1 3c8,34 11,68 11,101 0,71 -7,143 -22,214 -15,71 -32,140 -52,205l-6 14zm509 163c48,0 92,-16 133,-47 73,-58 130,-158 169,-298 1,-4 2,-9 2,-14 0,-3 0,-7 0,-10 0,-4 -1,-6 -4,-9 -2,-2 -5,-3 -9,-3 -7,0 -12,3 -14,9 -2,8 -4,14 -5,20 -2,6 -3,12 -5,18 -37,124 -88,211 -154,263 -31,25 -64,36 -99,36 -37,0 -64,-15 -81,-43 -17,-29 -25,-63 -25,-106 0,-59 9,-118 27,-176 6,-3 12,-7 17,-8 70,-31 122,-81 153,-151 11,-22 16,-48 18,-77 0,-34 -11,-61 -33,-83 -22,-22 -50,-33 -81,-33 -34,0 -67,12 -98,36 -31,24 -56,53 -77,87 -54,88 -80,179 -80,272 0,52 9,102 29,151 19,49 47,88 84,119 36,31 82,47 135,47zm-51 -402c0,-4 0,-6 -1,-9l43 -127c7,-14 14,-29 24,-44 12,-22 26,-32 42,-32 20,0 31,13 31,39 0,8 -1,14 -3,20 -24,67 -67,118 -132,151l-5 1zm637 791c26,0 54,-8 80,-22 41,-27 71,-61 94,-102 91,-145 156,-318 195,-520l5 -25c11,-39 15,-71 15,-94 0,-3 -1,-6 -4,-9 -3,-2 -5,-3 -8,-3 -7,0 -11,3 -14,8 -2,7 -4,14 -5,22 -46,265 -116,468 -215,609 -43,66 -89,98 -136,98 -24,0 -44,-7 -63,-22 -17,-16 -31,-35 -44,-59 -13,-25 -22,-50 -31,-77 -14,-50 -22,-94 -25,-132 -4,-38 -7,-84 -7,-135 0,-135 11,-269 31,-403l4 -18c80,-31 147,-69 203,-113 56,-43 106,-104 149,-180 35,-58 52,-119 52,-184 0,-49 -14,-92 -43,-128 -29,-35 -69,-54 -122,-56 -38,0 -73,10 -105,33 -41,27 -77,60 -106,99 -29,39 -53,81 -75,128 -93,197 -140,397 -140,600 0,84 9,171 29,263 19,92 48,177 86,258 14,28 31,56 51,80 19,26 41,45 67,60 25,16 52,23 83,23zm-119 -924l-2 -10c17,-123 47,-241 91,-354 13,-31 27,-61 44,-91 17,-31 37,-55 59,-75 22,-20 46,-31 73,-31 32,0 58,17 78,50 13,27 19,54 19,83 0,52 -14,102 -42,150 -68,125 -167,215 -299,270l-22 7zm578 1168c43,0 85,-10 125,-29 74,-36 129,-91 165,-165 36,-74 54,-151 54,-233 0,-59 -8,-119 -26,-182 -18,-62 -42,-122 -69,-177l-1 -3c-6,-8 -9,-18 -12,-30 11,-8 21,-16 31,-22 64,-41 131,-74 201,-98l57 -20c47,-15 73,-23 80,-26 5,-3 8,-7 8,-14 -1,-9 -6,-15 -16,-15 -14,4 -27,9 -40,13 -63,20 -119,40 -171,61 -51,21 -103,50 -157,87 -3,2 -8,3 -13,4 -22,-33 -37,-56 -44,-69 -7,-14 -18,-30 -31,-50 -29,-47 -50,-83 -63,-111 -18,-36 -28,-72 -28,-110 0,-27 8,-55 21,-84 14,-27 32,-52 55,-71 24,-20 50,-30 78,-30 22,0 43,6 63,20 30,21 44,57 44,109 0,28 -5,55 -18,83 -1,2 -2,4 -3,5 -1,2 -3,4 -4,7 -1,2 -2,5 -2,8 0,4 1,8 5,10 3,3 6,4 9,4 4,0 7,-1 9,-4 24,-34 35,-71 35,-112 0,-25 -4,-50 -13,-76 -11,-34 -30,-61 -57,-81 -28,-20 -59,-31 -93,-31l-24 2c-44,5 -87,24 -127,55 -41,32 -73,71 -100,119 -26,48 -39,99 -39,153 2,63 15,124 37,181 22,58 52,122 88,191l6 14c-6,9 -13,15 -19,20 -119,124 -195,265 -227,425 -3,17 -4,32 -4,49 0,37 8,74 24,109 20,40 49,69 86,85 37,17 75,26 116,26zm-70 -78l-5 0c-39,0 -68,-15 -86,-44 -18,-31 -26,-69 -27,-115 0,-80 27,-167 82,-258 33,-54 69,-103 108,-147l21 -24 13 -9 3 -2 9 15 25 65c17,39 32,78 44,117 12,38 18,77 18,118 0,97 -29,177 -88,240 -32,30 -70,45 -117,45z"/>
   </g>
   <g>
    <path class="fil0 str1" d="M7246 5606c0,4 -2,6 -8,6l-22 -3c-30,-3 -50,-6 -60,-8 -16,-3 -29,-6 -39,-9 -14,-4 -27,-10 -38,-17 -11,-7 -21,-14 -30,-23 -8,-8 -15,-18 -21,-28 -6,-10 -10,-21 -13,-32 -3,-11 -5,-24 -5,-37 0,-15 4,-34 13,-57 9,-23 14,-37 17,-43 3,-6 10,-15 22,-27 12,-13 28,-24 48,-34 7,-4 11,-6 11,-8 4,-2 9,-3 15,-3 7,0 12,-1 18,-3 5,-2 14,-3 26,-3 5,0 10,0 15,1 4,1 10,2 17,3 7,1 12,2 16,2 4,1 7,2 10,3 3,1 4,3 4,4 0,2 -1,8 -4,17 -3,9 -7,14 -12,14 -3,0 -5,-1 -8,-3 -6,-7 -15,-12 -26,-15 -11,-3 -19,-4 -23,-4 -3,0 -8,0 -14,1l-13 1c-2,0 -3,0 -4,1 -3,0 -6,1 -7,2 -3,1 -5,3 -7,4 -2,1 -4,2 -6,2 -2,0 -4,1 -5,1l-2 0 -3 3c-4,0 -8,2 -11,5l-5 0c-37,40 -56,82 -56,126 0,26 7,49 22,71 15,22 35,38 60,49 26,11 52,16 78,16 5,0 13,-1 23,-3 11,-2 16,-4 16,-6 6,0 10,12 10,35l0 1zm105 -322c1,0 5,0 10,1 5,1 9,1 14,1l49 -1 19 1c3,0 8,-1 16,-2 8,-1 14,-2 19,-2 8,0 12,2 12,6 0,0 -1,3 -2,9 -1,6 -3,10 -5,11 -2,1 -5,2 -10,2 -1,0 -5,0 -13,-1 -11,-7 -34,-10 -70,-10 -6,0 -14,0 -23,1 -9,0 -14,1 -16,2 -1,1 -3,2 -5,3 -2,7 -3,20 -5,39 -2,19 -3,29 -3,32 0,7 1,13 3,19 2,6 3,11 4,15 0,4 4,6 10,6l3 0c2,0 2,0 3,0 0,0 1,1 3,2 2,1 4,2 7,2 3,0 7,0 13,-1 6,-1 10,-1 13,-1 1,0 2,0 4,0 2,0 3,0 4,0 4,0 7,-1 10,-3l12 1c2,-1 10,-3 24,-4 0,1 0,2 0,4 0,1 0,3 0,6 0,3 0,5 0,6 0,2 0,4 0,5 -2,7 -8,10 -17,10 -2,0 -7,-1 -12,-3 -6,-2 -12,-3 -18,-3l-13 0c-3,0 -9,0 -17,-1 -8,-1 -14,-1 -19,-1l-6 0c-4,3 -7,5 -8,7 -1,2 -3,7 -5,17 -2,9 -2,19 -2,30 0,8 1,19 2,34 1,15 2,27 2,35 1,8 1,12 1,13 0,0 1,1 3,1 2,1 3,1 3,2l13 0c7,0 17,-1 30,-2l19 -2 6 1c2,0 4,0 8,0 12,0 30,-3 54,-8 4,-2 7,-4 9,-4 2,0 3,2 3,5l-2 9 0 8c0,5 -1,9 -4,10 -2,1 -7,2 -15,2 -5,0 -14,0 -26,-1 -13,-2 -25,-4 -37,-4l-53 1 -7 0c-2,-2 -4,-2 -5,-2 -1,0 -2,0 -2,1 -1,1 -2,1 -3,1 -1,0 -2,-1 -3,-1 -2,0 -4,1 -6,3 -4,0 -7,2 -9,4l-2 0c-2,0 -4,-1 -6,-3 1,-2 2,-4 2,-5l0 -4c0,-2 0,-4 1,-5 -1,0 -1,-1 -1,-2 0,-1 0,-3 1,-7 3,-25 4,-51 4,-78l0 -45 1 -32 0 -11 0 -60c0,-15 0,-27 -1,-38 -2,-9 -4,-14 -4,-16 0,-1 1,-3 2,-4 1,-1 8,-3 18,-6l1 -3 4 2 3 -1c4,0 8,1 12,4zm364 285c2,3 4,7 4,12 0,6 -1,11 -3,13 -2,3 -4,4 -6,4 -2,0 -5,-1 -10,-2 -5,-1 -7,-3 -7,-4l-2 3 -1 0c-1,0 -3,-1 -4,-3 -1,-2 -2,-3 -3,-4 -10,2 -21,3 -34,3l-41 0c-6,0 -14,0 -25,1 -4,4 -6,6 -7,6l0 0c-4,-3 -9,-4 -16,-4l-7 0c-1,1 -2,2 -3,4 -3,-3 -4,-6 -4,-9 0,-3 1,-6 2,-10 2,-4 3,-12 3,-22l0 -6c2,-17 4,-41 4,-71l0 -83c0,-4 0,-9 1,-15 1,-7 1,-11 1,-14l1 -26c0,-8 -1,-16 -3,-25 -2,-9 -3,-15 -4,-17l-3 -3 0 -1c0,-10 5,-15 15,-15 8,0 14,2 19,6 5,4 8,9 8,15 -5,8 -8,20 -8,37l0 21c0,4 -1,11 -2,20 -1,9 -2,15 -2,19 0,3 0,7 1,13 1,6 1,12 1,15l-1 30 0 41 -2 47c0,11 2,20 5,28 3,0 7,0 11,0 1,1 8,3 21,4 14,1 24,2 30,2 16,0 29,-2 37,-6 1,1 1,1 1,1 1,0 2,-1 5,-2 3,-1 5,-2 8,-2l5 1 14 0zm91 -285c1,0 5,0 10,1 5,1 9,1 14,1l49 -1 19 1c3,0 8,-1 16,-2 8,-1 14,-2 19,-2 8,0 12,2 12,6 0,0 -1,3 -2,9 -1,6 -3,10 -5,11 -2,1 -5,2 -10,2 -1,0 -5,0 -13,-1 -11,-7 -34,-10 -70,-10 -6,0 -14,0 -23,1 -9,0 -14,1 -16,2 -1,1 -3,2 -5,3 -2,7 -4,20 -5,39 -2,19 -3,29 -3,32 0,7 1,13 3,19 2,6 3,11 4,15 0,4 4,6 10,6l3 0c2,0 2,0 3,0 0,0 1,1 3,2 2,1 4,2 7,2 3,0 7,0 13,-1 6,-1 10,-1 13,-1 1,0 2,0 4,0 2,0 3,0 4,0 4,0 7,-1 10,-3l12 1c2,-1 10,-3 24,-4 0,1 0,2 0,4 0,1 0,3 0,6 0,3 0,5 0,6 0,2 0,4 0,5 -2,7 -8,10 -17,10 -2,0 -7,-1 -12,-3 -6,-2 -12,-3 -18,-3l-13 0c-3,0 -9,0 -17,-1 -8,-1 -14,-1 -19,-1l-6 0c-4,3 -7,5 -8,7 -1,2 -3,7 -5,17 -2,9 -2,19 -2,30 0,8 1,19 2,34 1,15 2,27 2,35 1,8 1,12 1,13 0,0 1,1 3,1 2,1 3,1 3,2l13 0c7,0 17,-1 30,-2l19 -2 6 1c2,0 4,0 8,0 12,0 30,-3 54,-8 4,-2 7,-4 9,-4 2,0 3,2 3,5l-2 9 0 8c0,5 -1,9 -4,10 -2,1 -7,2 -15,2 -5,0 -14,0 -26,-1 -13,-2 -25,-4 -37,-4l-53 1 -7 0c-2,-2 -4,-2 -5,-2 -1,0 -2,0 -2,1 -1,1 -2,1 -3,1 -1,0 -2,-1 -3,-1 -2,0 -4,1 -6,3 -4,0 -7,2 -9,4l-2 0c-2,0 -4,-1 -6,-3 1,-2 2,-4 2,-5l0 -4c0,-2 0,-4 1,-5 -1,0 -1,-1 -1,-2 0,-1 0,-3 1,-7 3,-25 4,-51 4,-78l0 -45 1 -32 0 -11 0 -60c0,-15 0,-27 -1,-38 -2,-9 -4,-14 -4,-16 0,-1 1,-3 2,-4 1,-1 8,-3 18,-6l1 -3 4 2 3 -1c4,0 8,1 12,4zm292 124c25,9 44,20 55,33 11,13 16,30 16,52 0,31 -14,57 -43,79l-5 0c-3,3 -5,5 -8,7 -3,2 -4,3 -5,3 -1,0 -1,-1 -2,-2 0,1 -2,2 -5,4 -3,2 -10,3 -20,5 -10,2 -15,2 -15,2 -2,0 -4,0 -5,0l-5 5 -6 -2c-2,2 -4,2 -6,2 -2,0 -4,0 -4,-1 -4,0 -10,1 -19,1 -9,0 -16,0 -20,1 1,-2 1,-5 1,-9l0 -8 3 -25c1,-8 2,-17 2,-25 0,-8 1,-17 1,-25 0,-8 0,-18 0,-28l0 -16 2 -89c0,-28 -1,-49 -4,-61 -2,-13 -4,-21 -4,-24 0,-9 6,-13 17,-13l4 -5c4,3 8,5 12,6 26,2 46,4 61,8 14,4 25,10 33,20 7,10 11,23 11,39l0 3c-4,23 -19,44 -43,63zm-31 -6c1,0 3,0 5,0l6 0c4,0 10,-6 20,-17 10,-11 15,-23 15,-35 0,-5 0,-9 -1,-13 -1,-4 -2,-8 -4,-12 -2,-4 -4,-8 -6,-11 -2,-4 -5,-7 -8,-9 -3,-3 -5,-4 -8,-5l-21 -6c-7,-2 -11,-3 -13,-3 -8,0 -13,3 -15,10 -2,7 -3,19 -3,37l2 48c0,10 0,17 1,20 1,3 3,5 6,5l3 0 5 1c3,0 6,-1 7,-4l5 0 4 0 1 -5zm0 179c1,0 4,0 6,0 9,0 19,-4 31,-12 12,-8 22,-19 29,-32 7,-14 11,-28 11,-42 0,-18 -7,-33 -21,-46 -14,-13 -34,-21 -58,-22 -1,1 -3,2 -6,5 -4,-4 -8,-7 -13,-7 -9,0 -14,8 -14,23l0 18c0,4 0,9 -1,14 -1,6 -1,10 -1,12 0,3 0,7 1,12 0,6 1,10 1,13 0,4 0,9 -1,17 -1,7 -1,13 -1,16 0,2 0,5 1,9l2 6 -1 6c0,7 4,11 13,11 3,0 6,1 10,2 4,1 7,2 8,2l4 -5zm389 -20c2,2 2,4 2,7 0,5 -2,11 -7,16 -5,5 -9,8 -12,8 -3,0 -6,-3 -11,-9l-12 -13c-9,-9 -25,-21 -47,-35 -22,-14 -52,-34 -88,-61l-3 -12 0 -2c0,-2 1,-4 3,-4 2,-1 6,-2 10,-3 27,-9 46,-20 57,-33 11,-13 16,-30 16,-51 0,-26 -7,-44 -21,-55 -14,-11 -31,-17 -49,-17l-9 0c-4,0 -8,1 -12,4 -4,3 -5,10 -5,20 0,5 0,10 1,13 0,3 1,8 1,14l-3 56c0,9 0,16 0,21l1 16 -1 10c-1,8 -1,16 -1,25 0,8 1,46 4,113 -1,1 -2,3 -3,5 -1,2 -2,3 -3,3 -1,0 -2,-1 -3,-2 -9,3 -14,4 -14,4 -2,0 -4,-2 -7,-5 -2,-3 -3,-8 -3,-14l0 -2c6,-11 10,-33 10,-67l-1 -83 1 -59 0 -36c0,-5 -1,-12 -2,-21 -1,-9 -2,-15 -2,-18 0,-3 1,-6 2,-7 1,-2 3,-3 5,-3 3,0 7,-1 14,-2 7,-1 14,-1 22,-1 14,0 28,1 39,4 12,3 23,7 34,14 11,6 18,13 23,21 4,7 8,15 10,22 2,7 3,14 3,21 0,39 -25,69 -74,90 -3,3 -5,5 -5,7 0,4 3,8 9,13 6,5 17,12 32,23 4,2 9,5 15,10 6,5 10,8 12,9 6,2 11,6 16,9 5,4 9,6 11,7 3,1 5,1 5,2 0,1 1,3 3,5 5,3 12,7 19,13 8,6 13,9 16,9 1,0 2,0 3,-1zm197 -280c11,41 47,131 108,267 8,13 12,24 12,32 0,2 -1,4 -2,6 -1,2 -6,4 -15,7 -9,3 -14,5 -17,6 -2,-3 -3,-5 -3,-8 0,-2 0,-5 1,-8l1 -3c0,-5 -2,-15 -7,-31 -5,-15 -13,-35 -24,-59 -1,-1 -2,-2 -4,-5 -1,-3 -4,-4 -9,-4 -3,0 -5,1 -8,4 0,-1 -3,-2 -9,-3l-6 -2 -6 0c-15,0 -25,1 -30,3 -6,2 -9,3 -9,3 -2,0 -4,-1 -5,-3 -9,2 -15,3 -20,3 -4,-1 -8,-1 -12,-1 -9,0 -18,1 -26,3 -8,2 -13,4 -16,4 -2,0 -5,2 -7,6l-3 -2c-15,32 -25,57 -32,75 -1,11 -3,21 -7,29 -4,8 -7,12 -10,12l0 0c-5,-2 -15,-5 -30,-7 -2,0 -3,-2 -3,-4 0,-5 2,-10 8,-14 5,-4 8,-8 9,-10 5,-9 9,-16 13,-19 5,-6 12,-17 19,-32 8,-15 14,-25 19,-30 0,-7 7,-21 20,-43 13,-22 25,-42 35,-61 10,-19 15,-29 16,-31 20,-30 30,-50 30,-61l0 -1c3,0 5,-1 5,-2l0 -2c0,-6 4,-12 10,-18l3 1c4,-5 7,-7 9,-7 3,0 4,2 4,6 0,2 0,5 -1,7zm10 185c4,-1 8,-2 12,-2 10,-2 15,-5 15,-9 0,0 -8,-23 -25,-67 -16,-44 -27,-66 -32,-66 -4,0 -11,10 -21,31 -10,21 -22,42 -35,64 -13,22 -19,36 -19,40 0,3 2,6 6,7 4,1 7,2 8,2l4 0c2,0 6,0 10,1 4,1 7,1 9,1 3,0 9,-1 17,-2 8,-1 13,-2 15,-2 2,0 4,0 7,1 3,1 5,1 6,1 2,0 3,-1 4,-3 4,1 7,2 10,2l7 0c2,0 3,0 4,0zm383 -176c-1,8 -2,14 -5,18 -3,1 -5,1 -5,1 -5,0 -11,0 -18,-1 -7,-1 -11,-1 -14,-1 -2,0 -3,0 -4,0 -2,-3 -12,-5 -29,-5l-36 2 -1 0c-1,0 -3,0 -4,1 -3,13 -6,30 -7,52 -2,22 -2,40 -2,53l1 25 -3 16c-1,5 -1,10 -2,15 0,5 0,11 0,17l3 48c0,6 -1,9 -2,10 1,0 3,4 4,13 1,8 2,15 4,19 1,4 2,7 2,8 0,2 -4,5 -11,7 0,0 0,1 0,2 0,1 0,2 -1,2 -1,0 -2,-1 -3,-3 -3,2 -5,4 -8,5 -1,-3 -3,-4 -6,-4 -1,0 -4,0 -6,0 -3,0 -5,0 -6,0l-2 0c3,-2 4,-7 3,-17 0,-5 -1,-9 -1,-12 0,0 0,-1 1,-2 5,-13 8,-41 8,-84l1 -103c0,-33 -1,-54 -4,-62 0,-1 1,-2 1,-3 0,-2 0,-3 -1,-4 -1,-1 -2,-2 -5,-2l-13 -1c-6,-1 -10,-1 -12,-1 -11,0 -18,2 -20,6 -2,-2 -5,-2 -7,-2 -2,0 -4,1 -7,2 -3,1 -7,2 -12,2 -6,0 -11,-2 -14,-5 0,-1 -1,-2 -1,-4 0,-2 1,-5 2,-9 1,-4 2,-7 2,-9l0 -1c2,-1 4,-2 7,-2 2,0 8,1 17,2 9,2 20,2 31,2l32 0c8,0 15,-1 21,-3l1 -3c2,1 3,1 3,2l4 -1c2,0 4,1 6,3 2,2 4,4 5,5 1,0 5,0 10,-1 5,-1 10,-1 14,-1l35 -1 6 1 2 0c2,0 7,0 13,-1 6,-1 11,-1 15,-1 9,0 15,2 17,5z"/>
    <path class="fil0 str1" d="M1878 5493c0,0 2,-5 5,-12 1,-8 1,-19 1,-32l0 -27 1 -48c0,-24 -1,-42 -2,-53 -1,-11 -2,-16 -2,-17 0,-1 0,-3 1,-5 0,-2 1,-3 1,-4l0 -4c0,-5 3,-9 10,-11 6,-2 20,-3 40,-3 19,0 36,1 50,4 14,3 26,7 37,14 10,6 18,13 22,20 4,7 8,14 9,20 2,6 3,16 3,31 0,10 -1,19 -4,27 -3,8 -8,18 -16,30 -8,13 -16,23 -26,32 -10,9 -20,16 -31,21 -11,5 -24,9 -38,11 -11,2 -18,4 -22,7 -4,3 -6,11 -6,23 0,5 1,11 2,17 1,6 2,13 2,20l0 10c0,3 0,6 1,10l1 6 0 3c0,2 0,4 -1,5 -1,1 -3,1 -7,2 -4,1 -8,2 -11,3 -4,1 -6,2 -6,2 -1,0 -2,-1 -5,-2 -2,-1 -5,-2 -7,-2 -2,-1 -3,-1 -3,-2 0,-1 1,-3 4,-6 3,-3 4,-6 4,-10l0 -1c1,-6 2,-12 3,-18 1,-6 2,-14 2,-24 0,-6 0,-12 -1,-19 0,-7 -1,-10 -1,-11 0,-1 -1,-2 -3,-4 -1,-2 -2,-2 -2,-3l0 0zm33 -20c12,-2 22,-5 33,-8 10,-3 19,-7 28,-11 8,-4 14,-8 18,-12 4,-4 8,-9 13,-14 5,-6 8,-10 11,-14 1,-4 3,-9 6,-15 3,-6 4,-13 5,-18 1,-6 1,-12 1,-20 0,-17 -4,-29 -11,-36 -8,-8 -16,-15 -26,-22 -10,-7 -25,-10 -45,-10l-15 0c-7,0 -12,2 -15,5 -3,3 -4,9 -4,18l2 35 0 39 0 51c0,14 0,24 0,32zm424 85c2,2 2,4 2,7 0,5 -2,11 -7,16 -5,5 -9,8 -12,8 -3,0 -6,-3 -11,-9l-12 -13c-9,-9 -25,-21 -47,-35 -22,-14 -52,-34 -88,-61l-3 -12 0 -2c0,-2 1,-4 3,-4 2,-1 6,-2 10,-3 27,-9 46,-20 57,-33 11,-13 16,-30 16,-51 0,-26 -7,-44 -21,-55 -14,-11 -31,-17 -49,-17l-9 0c-4,0 -8,1 -12,4 -4,3 -5,10 -5,20 0,5 0,10 1,13 0,3 1,8 1,14l-3 56c0,9 0,16 0,21l1 16 -1 10c-1,8 -1,16 -1,25 0,8 1,46 4,113 -1,1 -2,3 -3,5 -1,2 -2,3 -3,3 -1,0 -2,-1 -3,-2 -9,3 -14,4 -14,4 -2,0 -4,-2 -7,-5 -2,-3 -3,-8 -3,-14l0 -2c6,-11 10,-33 10,-67l-1 -83 1 -59 0 -36c0,-5 -1,-12 -2,-21 -1,-9 -2,-15 -2,-18 0,-3 1,-6 2,-7 1,-2 3,-3 5,-3 3,0 7,-1 14,-2 7,-1 14,-1 22,-1 14,0 28,1 39,4 12,3 23,7 34,14 11,6 18,13 23,21 4,7 8,15 10,22 2,7 3,14 3,21 0,39 -25,69 -74,90 -3,3 -5,5 -5,7 0,4 3,8 9,13 6,5 17,12 32,23 4,2 9,5 15,10 6,5 10,8 12,9 6,2 11,6 16,9 5,4 9,6 11,7 3,1 5,1 5,2 0,1 1,3 3,5 5,3 12,7 19,13 8,6 13,9 16,9 1,0 2,0 3,-1zm264 -266c10,-1 22,11 37,35 15,24 22,50 22,79 0,15 -1,28 -4,41 -3,13 -6,25 -12,36 -11,24 -19,39 -23,46 -10,16 -22,28 -34,38 -13,9 -26,16 -39,21 -13,4 -28,7 -45,7 -40,0 -61,-4 -64,-11 -3,-1 -7,-3 -13,-5 -6,-2 -9,-3 -9,-4l-6 -7c-5,-1 -8,-2 -8,-2 -15,-10 -26,-23 -33,-41 -7,-17 -11,-41 -11,-73 0,-24 8,-52 23,-85 1,-2 2,-5 3,-8 1,-3 2,-6 5,-8 3,-2 4,-4 4,-6 12,-14 19,-23 22,-26 2,-3 7,-7 16,-10 8,-3 14,-8 16,-12 1,-1 2,-2 4,-2 2,0 3,1 4,1l2 0c1,-1 2,-3 3,-4 1,-1 2,-2 2,-1 1,0 6,-2 16,-5 10,-4 16,-5 18,-5 2,0 8,0 19,-2l14 -3c3,0 7,1 12,2 5,1 8,2 9,2 26,3 43,7 50,12zm6 224c17,-33 26,-63 26,-91 0,-19 -2,-36 -6,-50 -4,-15 -10,-28 -18,-38 -8,-10 -17,-19 -28,-25 -11,-6 -24,-11 -40,-13 -16,-2 -26,-3 -29,-3 0,0 -2,1 -4,2 -2,2 -4,4 -6,6 -2,1 -4,1 -7,1l-7 0c-5,0 -9,2 -12,7 0,0 -1,0 -1,0 -1,0 -1,-1 -2,-2l-3 2 0 3c0,0 -1,-1 -1,-2 -1,-1 -1,-2 -2,-2l-1 0c-14,5 -21,9 -24,12 -3,1 -6,2 -8,2 -2,2 -4,5 -8,10 -4,5 -6,9 -9,11 -2,3 -4,5 -6,7 -2,2 -3,5 -3,10 -7,7 -13,19 -18,36 -4,17 -7,34 -7,52 0,17 2,31 7,45 5,13 11,22 17,25l0 5c4,5 9,10 14,15 5,5 12,9 22,12 10,4 18,6 24,8 7,2 14,4 22,5 8,1 16,2 25,2 5,0 9,0 12,0l15 -4c5,-1 8,-2 11,-2 1,0 5,-3 11,-7l15 -9c1,-1 2,-2 3,-2 1,-1 1,-3 1,-4l0 -2c1,-2 3,-4 8,-7 5,-3 9,-5 11,-7 3,-2 4,-4 4,-6 0,-2 0,-4 -1,-5zm374 -233c-33,56 -68,125 -103,209l-32 75 0 3c0,5 -2,11 -5,17 -3,6 -7,9 -12,9 -3,3 -9,4 -18,4 -4,0 -7,-2 -8,-6l-10 -36c-16,-58 -29,-103 -39,-134 -10,-31 -18,-55 -26,-72 -8,-17 -12,-26 -13,-28l0 -5c-8,-12 -12,-19 -12,-19 0,-1 2,-3 5,-4 3,-2 6,-3 8,-4l8 -6c3,0 6,-2 8,-3l6 3c2,12 5,26 10,43l15 46c5,15 9,27 12,37 5,15 9,28 12,42 5,18 9,31 12,40l9 24c3,7 6,13 9,18 3,6 7,11 12,15 4,-2 8,-6 11,-10 3,-4 7,-11 11,-20l62 -146c11,-25 18,-43 23,-55 5,-12 7,-20 7,-24 0,-1 0,-2 0,-2 0,-10 4,-15 13,-15l2 0c2,0 4,-1 8,-3 4,-2 6,-3 8,-3 6,0 9,4 9,11zm52 308c-14,-1 -21,-4 -21,-9 0,-2 1,-3 2,-5 1,-2 2,-4 3,-6 1,-2 2,-11 3,-25 1,-14 2,-36 3,-65 1,-29 1,-60 1,-93l-3 -74 0 0c0,-1 -1,-3 -2,-5 -1,-2 -2,-4 -2,-5 0,0 1,-3 4,-9 2,-5 7,-9 13,-11 6,-2 10,-3 10,-3 1,0 2,1 3,3 0,2 1,3 2,3 3,3 4,7 4,13 0,0 0,2 -1,5 -4,25 -5,53 -5,83l0 17 -2 93c0,28 2,48 6,61 4,13 6,22 6,27 0,2 -2,4 -6,6 -4,2 -8,3 -10,3l-1 0c-3,0 -5,-1 -6,-3zm263 -305c23,10 41,26 53,47 13,21 19,45 19,71 0,10 -1,20 -4,30 -3,10 -6,20 -11,30 -5,10 -11,20 -18,29 -7,9 -15,18 -24,27 -9,9 -19,17 -30,24 -11,8 -23,15 -36,21l-15 10 -19 6c-10,3 -15,5 -15,5 -1,0 -2,0 -4,-1 -1,2 -2,3 -4,4 -2,1 -3,2 -4,2l-6 0c-1,3 -4,5 -7,7 -4,2 -6,2 -8,2 -1,0 -3,0 -6,-1 -3,0 -5,-1 -7,-1l-1 0c-3,0 -5,-3 -5,-11 0,-1 0,-4 1,-8 5,-27 7,-55 7,-85l-1 -69 0 -68c0,-17 0,-30 -1,-37 -1,-7 -1,-18 -1,-31 0,-5 0,-8 1,-9 2,-1 3,-2 3,-4l7 0 1 -4c8,5 16,7 25,7 3,0 5,0 7,-1l6 -1c1,0 3,0 6,1 3,1 5,1 7,1l5 -1c5,-1 10,-1 14,-1 15,0 27,1 38,2 10,2 15,3 15,4 2,1 3,1 4,1 1,0 3,0 6,-1zm-114 260c-1,4 -1,6 -1,8 0,11 3,17 8,17 9,0 20,-2 31,-6 12,-4 23,-10 35,-18 6,-4 12,-8 16,-10 5,-2 13,-10 26,-23 8,-8 15,-17 21,-27 6,-9 11,-19 15,-30 6,-15 9,-27 9,-33 0,-23 -2,-42 -7,-58 -5,-16 -13,-30 -25,-41 -12,-11 -26,-19 -41,-23 -15,-4 -38,-6 -69,-6l-2 5 -2 0c-2,0 -4,0 -6,-1 -9,10 -14,53 -14,129l2 112 0 2c0,2 1,4 3,5zm271 45c-14,-1 -21,-4 -21,-9 0,-2 1,-3 2,-5 1,-2 2,-4 3,-6 1,-2 2,-11 3,-25 1,-14 2,-36 3,-65 1,-29 1,-60 1,-93l-3 -74 0 0c0,-1 -1,-3 -2,-5 -1,-2 -2,-4 -2,-5 0,0 1,-3 4,-9 2,-5 7,-9 13,-11 6,-2 10,-3 10,-3 1,0 2,1 3,3 0,2 1,3 2,3 3,3 4,7 4,13 0,0 0,2 -1,5 -4,25 -5,53 -5,83l0 17 -2 93c0,28 2,48 6,61 4,13 6,22 6,27 0,2 -2,4 -6,6 -4,2 -8,3 -10,3l-1 0c-3,0 -5,-1 -6,-3zm386 -307l-4 14c-3,12 -6,25 -7,40 -1,15 -2,32 -2,51 0,20 -1,36 -2,51 -1,14 -2,26 -2,35l0 25 0 17c0,9 1,18 3,30 2,11 3,19 3,23 0,9 -1,16 -4,22 -3,6 -6,8 -9,8 -6,0 -15,-8 -27,-25l0 -5c-32,-34 -58,-65 -79,-93 -21,-28 -44,-57 -68,-87 -24,-31 -37,-46 -38,-46 -1,0 -3,1 -4,4 -1,3 -3,13 -5,31 -2,18 -3,40 -3,66 0,28 1,60 4,96l3 6 0 5c0,5 -1,8 -2,9l0 0c0,1 1,4 2,8 2,4 2,9 2,13l0 3c-4,6 -10,8 -18,8 -2,0 -3,-1 -4,-4 -3,0 -7,2 -13,4 -2,-3 -3,-7 -3,-14 0,-6 1,-16 3,-30 1,0 2,-1 3,-2 0,-1 1,-5 1,-11 0,-6 1,-12 1,-16 -2,-3 -3,-5 -3,-7l0 -1c3,-2 4,-5 4,-10l1 -27 0 -36c0,-16 1,-27 2,-33 1,-6 2,-11 2,-13 0,-2 0,-6 -1,-11 0,-5 -1,-8 -1,-9 0,-11 0,-19 1,-25 1,-6 1,-14 1,-23l-2 -8c1,-2 1,-5 1,-11 0,-7 0,-12 0,-16 1,-2 2,-3 4,-5 2,-2 3,-3 4,-4 1,-1 1,-1 2,-1 0,0 2,-1 6,-2 3,0 8,6 15,17 12,20 25,36 38,50 0,0 0,0 0,1 0,2 8,11 23,29 15,18 33,40 54,67l19 25c7,9 13,17 20,25 7,8 15,17 24,27 9,10 14,15 16,16 2,1 3,1 3,1 1,0 2,-1 2,-3l0 -16 1 -29 0 -39c0,-15 0,-36 1,-61l1 -33c0,-9 -1,-14 -3,-16 0,-1 0,-2 0,-3 0,-1 0,-3 1,-6 0,-2 1,-4 1,-5 0,-1 0,-2 0,-3 0,-2 0,-5 0,-9 0,-3 0,-6 -1,-9 -1,-2 -1,-5 -1,-9 0,-5 2,-9 5,-11 3,-3 8,-4 14,-4l4 0 6 0c2,0 4,1 6,2zm316 4c5,3 7,10 7,21 0,12 -4,18 -10,18 -2,0 -4,-1 -6,-2 -2,-3 -6,-6 -10,-10 -5,-4 -9,-6 -13,-8l-14 -5 -4 0c-5,0 -12,-1 -21,-3 -10,-2 -17,-3 -21,-3 -7,0 -17,1 -30,3 -13,2 -24,6 -35,10 -3,3 -7,6 -11,9l-7 4c-2,1 -5,4 -7,6l-5 0c-11,6 -22,22 -32,46 -10,24 -16,46 -16,66 0,24 7,46 20,66 14,20 33,35 57,46 1,0 4,1 7,4 7,6 28,12 62,18l5 -5c3,2 6,2 8,2 1,0 2,-1 4,-2 3,0 5,1 6,3 5,-2 9,-3 12,-3 1,0 4,0 8,1 0,-1 2,-3 3,-5 2,-10 3,-18 3,-26l0 -3 1 -31c0,-10 -1,-22 -3,-36 -2,-4 -4,-8 -4,-10 0,-6 2,-9 6,-9l20 1c3,0 5,-1 6,-2 3,0 5,2 5,5 0,0 0,2 -1,4 -4,18 -6,40 -6,65 0,10 2,26 6,49 -3,3 -4,5 -4,5 -1,3 -2,7 -4,12 -2,5 -4,8 -9,9 -2,-2 -5,-3 -9,-5 -1,0 -2,0 -4,0 -1,0 -4,0 -9,1 -5,0 -8,1 -9,1 -1,0 -2,2 -5,4l-1 0c-1,0 -4,0 -9,1 -5,0 -9,1 -13,1 -7,0 -12,0 -16,-1l-9 -2c0,0 -1,0 -2,1 -1,1 -2,1 -4,1l-1 0c-2,-2 -4,-4 -6,-5 -18,0 -38,-7 -61,-22 -23,-15 -41,-31 -53,-50 -13,-19 -19,-43 -19,-73 0,-19 4,-39 11,-60 7,-21 12,-31 16,-31l0 0 0 -1c0,-1 0,-2 1,-4 0,-1 1,-2 1,-3l0 -1c3,0 5,-2 8,-5l0 -5c20,-24 44,-41 70,-50 26,-9 49,-14 69,-14 1,0 10,1 24,3 15,2 28,4 39,6 11,2 17,3 18,3l0 0zm406 270c2,2 2,4 2,7 0,5 -2,11 -7,16 -5,5 -9,8 -12,8 -3,0 -6,-3 -11,-9l-12 -13c-9,-9 -25,-21 -47,-35 -22,-14 -52,-34 -88,-61l-3 -12 0 -2c0,-2 1,-4 3,-4 2,-1 6,-2 10,-3 27,-9 46,-20 57,-33 11,-13 16,-30 16,-51 0,-26 -7,-44 -21,-55 -14,-11 -31,-17 -49,-17l-9 0c-4,0 -8,1 -12,4 -4,3 -5,10 -5,20 0,5 0,10 1,13 0,3 1,8 1,14l-3 56c0,9 0,16 0,21l1 16 -1 10c-1,8 -1,16 -1,25 0,8 1,46 4,113 -1,1 -2,3 -3,5 -1,2 -2,3 -3,3 -1,0 -2,-1 -3,-2 -9,3 -14,4 -14,4 -2,0 -4,-2 -7,-5 -2,-3 -3,-8 -3,-14l0 -2c6,-11 10,-33 10,-67l-1 -83 1 -59 0 -36c0,-5 -1,-12 -2,-21 -1,-9 -2,-15 -2,-18 0,-3 1,-6 2,-7 1,-2 3,-3 5,-3 3,0 7,-1 14,-2 7,-1 14,-1 22,-1 14,0 28,1 39,4 12,3 23,7 34,14 11,6 18,13 23,21 4,7 8,15 10,22 2,7 3,14 3,21 0,39 -25,69 -74,90 -3,3 -5,5 -5,7 0,4 3,8 9,13 6,5 17,12 32,23 4,2 9,5 15,10 6,5 10,8 12,9 6,2 11,6 16,9 5,4 9,6 11,7 3,1 5,1 5,2 0,1 1,3 3,5 5,3 12,7 19,13 8,6 13,9 16,9 1,0 2,0 3,-1z"/>
    <path class="fil0 str1" d="M4648 5284c1,0 5,0 10,1 5,1 9,1 14,1l49 -1 19 1c3,0 8,-1 16,-2 8,-1 14,-2 19,-2 8,0 12,2 12,6 0,0 -1,3 -2,9 -1,6 -3,10 -5,11 -2,1 -5,2 -10,2 -1,0 -5,0 -13,-1 -11,-7 -34,-10 -70,-10 -6,0 -14,0 -23,1 -9,0 -14,1 -16,2 -1,1 -3,2 -5,3 -2,7 -3,20 -5,39 -2,19 -3,29 -3,32 0,7 1,13 3,19 2,6 3,11 4,15 0,4 4,6 10,6l3 0c2,0 2,0 3,0 0,0 1,1 3,2 2,1 4,2 7,2 3,0 7,0 13,-1 6,-1 10,-1 13,-1 1,0 2,0 4,0 2,0 3,0 4,0 4,0 7,-1 10,-3l12 1c2,-1 10,-3 24,-4 0,1 0,2 0,4 0,1 0,3 0,6 0,3 0,5 0,6 0,2 0,4 0,5 -2,7 -8,10 -17,10 -2,0 -7,-1 -12,-3 -6,-2 -12,-3 -18,-3l-13 0c-3,0 -9,0 -17,-1 -8,-1 -14,-1 -19,-1l-6 0c-4,3 -7,5 -8,7 -1,2 -3,7 -5,17 -2,9 -2,19 -2,30 0,8 1,19 2,34 1,15 2,27 2,35 1,8 1,12 1,13 0,0 1,1 3,1 2,1 3,1 3,2l13 0c7,0 17,-1 30,-2l19 -2 6 1c2,0 4,0 8,0 12,0 30,-3 54,-8 4,-2 7,-4 9,-4 2,0 3,2 3,5l-2 9 0 8c0,5 -1,9 -4,10 -2,1 -7,2 -15,2 -5,0 -14,0 -26,-1 -13,-2 -25,-4 -37,-4l-53 1 -7 0c-2,-2 -4,-2 -5,-2 -1,0 -2,0 -2,1 -1,1 -2,1 -3,1 -1,0 -2,-1 -3,-1 -2,0 -4,1 -6,3 -4,0 -7,2 -9,4l-2 0c-2,0 -4,-1 -6,-3 1,-2 2,-4 2,-5l0 -4c0,-2 0,-4 1,-5 -1,0 -1,-1 -1,-2 0,-1 0,-3 1,-7 3,-25 4,-51 4,-78l0 -45 1 -32 0 -11 0 -60c0,-15 0,-27 -1,-38 -2,-9 -4,-14 -4,-16 0,-1 1,-3 2,-4 1,-1 8,-3 18,-6l1 -3 4 2 3 -1c4,0 8,1 12,4zm345 -4c11,41 47,131 108,267 8,13 12,24 12,32 0,2 -1,4 -2,6 -1,2 -6,4 -15,7 -9,3 -14,5 -17,6 -2,-3 -3,-5 -3,-8 0,-2 0,-5 1,-8l1 -3c0,-5 -2,-15 -7,-31 -5,-15 -13,-35 -24,-59 -1,-1 -2,-2 -4,-5 -1,-3 -4,-4 -9,-4 -3,0 -5,1 -8,4 0,-1 -3,-2 -9,-3l-6 -2 -6 0c-15,0 -25,1 -30,3 -6,2 -9,3 -9,3 -2,0 -4,-1 -5,-3 -9,2 -15,3 -20,3 -4,-1 -8,-1 -12,-1 -9,0 -18,1 -26,3 -8,2 -13,4 -16,4 -2,0 -5,2 -7,6l-3 -2c-15,32 -25,57 -32,75 -1,11 -3,21 -7,29 -4,8 -7,12 -10,12l0 0c-5,-2 -15,-5 -30,-7 -2,0 -3,-2 -3,-4 0,-5 2,-10 8,-14 5,-4 8,-8 9,-10 5,-9 9,-16 13,-19 5,-6 12,-17 19,-32 8,-15 14,-25 19,-30 0,-7 7,-21 20,-43 13,-22 25,-42 35,-61 10,-19 15,-29 16,-31 20,-30 30,-50 30,-61l0 -1c3,0 5,-1 5,-2l0 -2c0,-6 4,-12 10,-18l3 1c4,-5 7,-7 9,-7 3,0 4,2 4,6 0,2 0,5 -1,7zm10 185c4,-1 8,-2 12,-2 10,-2 15,-5 15,-9 0,0 -8,-23 -25,-67 -16,-44 -27,-66 -32,-66 -4,0 -11,10 -21,31 -10,21 -22,42 -35,64 -13,22 -19,36 -19,40 0,3 2,6 6,7 4,1 7,2 8,2l4 0c2,0 6,0 10,1 4,1 7,1 9,1 3,0 9,-1 17,-2 8,-1 13,-2 15,-2 2,0 4,0 7,1 3,1 5,1 6,1 2,0 3,-1 4,-3 4,1 7,2 10,2l7 0c2,0 3,0 4,0zm272 -148c-2,-1 -4,-4 -9,-8 -4,-4 -9,-6 -15,-6 -23,0 -41,5 -54,16 -13,11 -20,25 -20,43 0,19 19,39 58,61 3,0 6,0 9,1 3,1 9,5 17,13 8,8 14,15 18,22 4,6 7,13 9,19 2,7 3,13 3,20 0,29 -6,51 -19,66 -13,16 -35,30 -68,42 -2,-1 -3,-1 -5,-1 -2,0 -6,1 -11,4 -5,3 -15,4 -30,4 -5,0 -9,-2 -11,-7 -2,-5 -3,-12 -3,-21 0,-3 1,-5 3,-8l2 0c4,0 8,2 12,7 9,2 14,3 16,3 2,0 8,-1 20,-2 12,-2 23,-5 34,-11 11,-6 18,-11 22,-16 4,-5 8,-11 11,-18 4,-7 6,-15 6,-24 0,-14 -4,-27 -12,-39 -8,-12 -17,-20 -26,-21l0 -1c0,-3 -3,-6 -10,-10 -25,-12 -43,-24 -53,-36 -10,-12 -15,-26 -15,-42 0,-6 1,-13 2,-19 2,-6 4,-12 7,-18 3,-6 7,-11 12,-16 5,-5 11,-10 19,-14 8,-5 13,-7 17,-7l7 0c0,0 2,-2 5,-5 4,0 8,-1 13,-4 5,-2 8,-3 9,-4 1,1 2,2 3,4 4,-1 8,-1 12,-1l5 0c7,0 12,1 15,3 4,2 5,6 5,12 0,5 -1,10 -3,14 -2,4 -4,7 -7,7zm297 -23c10,-1 22,11 37,35 15,24 22,50 22,79 0,15 -1,28 -4,41 -3,13 -6,25 -12,36 -11,24 -19,39 -23,46 -10,16 -22,28 -34,38 -13,9 -26,16 -39,21 -13,4 -28,7 -45,7 -40,0 -61,-4 -64,-11 -3,-1 -7,-3 -13,-5 -6,-2 -9,-3 -9,-4l-6 -7c-5,-1 -8,-2 -8,-2 -15,-10 -26,-23 -33,-41 -7,-17 -11,-41 -11,-73 0,-24 8,-52 23,-85 1,-2 2,-5 3,-8 1,-3 2,-6 5,-8 3,-2 4,-4 4,-6 12,-14 19,-23 22,-26 2,-3 7,-7 16,-10 8,-3 14,-8 16,-12 1,-1 2,-2 4,-2 2,0 3,1 4,1l2 0c1,-1 2,-3 3,-4 1,-1 2,-2 2,-1 1,0 6,-2 16,-5 10,-4 16,-5 18,-5 2,0 8,0 19,-2l14 -3c3,0 7,1 12,2 5,1 8,2 9,2 26,3 43,7 50,12zm6 224c17,-33 26,-63 26,-91 0,-19 -2,-36 -6,-50 -4,-15 -10,-28 -18,-38 -8,-10 -17,-19 -28,-25 -11,-6 -24,-11 -40,-13 -16,-2 -26,-3 -29,-3 0,0 -2,1 -4,2 -2,2 -4,4 -6,6 -2,1 -4,1 -7,1l-7 0c-5,0 -9,2 -12,7 0,0 -1,0 -1,0 -1,0 -1,-1 -2,-2l-3 2 0 3c0,0 -1,-1 -1,-2 -1,-1 -1,-2 -2,-2l-1 0c-14,5 -21,9 -24,12 -3,1 -6,2 -8,2 -2,2 -4,5 -8,10 -4,5 -6,9 -9,11 -2,3 -4,5 -6,7 -2,2 -3,5 -3,10 -7,7 -13,19 -18,36 -4,17 -7,34 -7,52 0,17 2,31 7,45 5,13 11,22 17,25l0 5c4,5 9,10 14,15 5,5 12,9 22,12 10,4 18,6 24,8 7,2 14,4 22,5 8,1 16,2 25,2 5,0 9,0 12,0l15 -4c5,-1 8,-2 11,-2 1,0 5,-3 11,-7l15 -9c1,-1 2,-2 3,-2 1,-1 1,-3 1,-4l0 -2c1,-2 3,-4 8,-7 5,-3 9,-5 11,-7 3,-2 4,-4 4,-6 0,-2 0,-4 -1,-5zm392 -232l-4 14c-3,12 -6,25 -7,40 -1,15 -2,32 -2,51 0,20 -1,36 -2,51 -1,14 -2,26 -2,35l0 25 0 17c0,9 1,18 3,30 2,11 3,19 3,23 0,9 -1,16 -4,22 -3,6 -6,8 -9,8 -6,0 -15,-8 -27,-25l0 -5c-32,-34 -58,-65 -79,-93 -21,-28 -44,-57 -68,-87 -24,-31 -37,-46 -38,-46 -1,0 -3,1 -4,4 -1,3 -3,13 -5,31 -2,18 -3,40 -3,66 0,28 1,60 4,96l3 6 0 5c0,5 -1,8 -2,9l0 0c0,1 1,4 2,8 2,4 2,9 2,13l0 3c-4,6 -10,8 -18,8 -2,0 -3,-1 -4,-4 -3,0 -7,2 -13,4 -2,-3 -3,-7 -3,-14 0,-6 1,-16 3,-30 1,0 2,-1 3,-2 0,-1 1,-5 1,-11 0,-6 1,-12 1,-16 -2,-3 -3,-5 -3,-7l0 -1c3,-2 4,-5 4,-10l1 -27 0 -36c0,-16 1,-27 2,-33 1,-6 2,-11 2,-13 0,-2 0,-6 -1,-11 0,-5 -1,-8 -1,-9 0,-11 0,-19 1,-25 1,-6 1,-14 1,-23l-2 -8c1,-2 1,-5 1,-11 0,-7 0,-12 0,-16 1,-2 2,-3 4,-5 2,-2 3,-3 4,-4 1,-1 1,-1 2,-1 0,0 2,-1 6,-2 3,0 8,6 15,17 12,20 25,36 38,50 0,0 0,0 0,1 0,2 8,11 23,29 15,18 33,40 54,67l19 25c7,9 13,17 20,25 7,8 15,17 24,27 9,10 14,15 16,16 2,1 3,1 3,1 1,0 2,-1 2,-3l0 -16 1 -29 0 -39c0,-15 0,-36 1,-61l1 -33c0,-9 -1,-14 -3,-16 0,-1 0,-2 0,-3 0,-1 0,-3 1,-6 0,-2 1,-4 1,-5 0,-1 0,-2 0,-3 0,-2 0,-5 0,-9 0,-3 0,-6 -1,-9 -1,-2 -1,-5 -1,-9 0,-5 2,-9 5,-11 3,-3 8,-4 14,-4l4 0 6 0c2,0 4,1 6,2zm186 31c-2,-1 -4,-4 -9,-8 -4,-4 -9,-6 -15,-6 -23,0 -41,5 -54,16 -13,11 -20,25 -20,43 0,19 19,39 58,61 3,0 6,0 9,1 3,1 9,5 17,13 8,8 14,15 18,22 4,6 7,13 9,19 2,7 3,13 3,20 0,29 -6,51 -19,66 -13,16 -35,30 -68,42 -2,-1 -3,-1 -5,-1 -2,0 -6,1 -11,4 -5,3 -15,4 -30,4 -5,0 -9,-2 -11,-7 -2,-5 -3,-12 -3,-21 0,-3 1,-5 3,-8l2 0c4,0 8,2 12,7 9,2 14,3 16,3 2,0 8,-1 20,-2 12,-2 23,-5 34,-11 11,-6 18,-11 22,-16 4,-5 8,-11 11,-18 4,-7 6,-15 6,-24 0,-14 -4,-27 -12,-39 -8,-12 -17,-20 -26,-21l0 -1c0,-3 -3,-6 -10,-10 -25,-12 -43,-24 -53,-36 -10,-12 -15,-26 -15,-42 0,-6 1,-13 2,-19 2,-6 4,-12 7,-18 3,-6 7,-11 12,-16 5,-5 11,-10 19,-14 8,-5 13,-7 17,-7l7 0c0,0 2,-2 5,-5 4,0 8,-1 13,-4 5,-2 8,-3 9,-4 1,1 2,2 3,4 4,-1 8,-1 12,-1l5 0c7,0 12,1 15,3 4,2 5,6 5,12 0,5 -1,10 -3,14 -2,4 -4,7 -7,7zm405 -28c-1,8 -2,14 -5,18 -3,1 -5,1 -5,1 -5,0 -11,0 -18,-1 -7,-1 -11,-1 -14,-1 -2,0 -3,0 -4,0 -2,-3 -12,-5 -29,-5l-36 2 -1 0c-1,0 -3,0 -4,1 -3,13 -6,30 -7,52 -2,22 -2,40 -2,53l1 25 -3 16c-1,5 -1,10 -2,15 0,5 0,11 0,17l3 48c0,6 -1,9 -2,10 1,0 3,4 4,13 1,8 2,15 4,19 1,4 2,7 2,8 0,2 -4,5 -11,7 0,0 0,1 0,2 0,1 0,2 -1,2 -1,0 -2,-1 -3,-3 -3,2 -5,4 -8,5 -1,-3 -3,-4 -6,-4 -1,0 -4,0 -6,0 -3,0 -5,0 -6,0l-2 0c3,-2 4,-7 3,-17 0,-5 -1,-9 -1,-12 0,0 0,-1 1,-2 5,-13 8,-41 8,-84l1 -103c0,-33 -1,-54 -4,-62 0,-1 1,-2 1,-3 0,-2 0,-3 -1,-4 -1,-1 -2,-2 -5,-2l-13 -1c-6,-1 -10,-1 -12,-1 -11,0 -18,2 -20,6 -2,-2 -5,-2 -7,-2 -2,0 -4,1 -7,2 -3,1 -7,2 -12,2 -6,0 -11,-2 -14,-5 0,-1 -1,-2 -1,-4 0,-2 1,-5 2,-9 1,-4 2,-7 2,-9l0 -1c2,-1 4,-2 7,-2 2,0 8,1 17,2 9,2 20,2 31,2l32 0c8,0 15,-1 21,-3l1 -3c2,1 3,1 3,2l4 -1c2,0 4,1 6,3 2,2 4,4 5,5 1,0 5,0 10,-1 5,-1 10,-1 14,-1l35 -1 6 1 2 0c2,0 7,0 13,-1 6,-1 11,-1 15,-1 9,0 15,2 17,5zm239 5c10,-1 22,11 37,35 15,24 22,50 22,79 0,15 -1,28 -4,41 -3,13 -6,25 -12,36 -11,24 -19,39 -23,46 -10,16 -22,28 -34,38 -13,9 -26,16 -39,21 -13,4 -28,7 -45,7 -40,0 -61,-4 -64,-11 -3,-1 -7,-3 -13,-5 -6,-2 -9,-3 -9,-4l-6 -7c-5,-1 -8,-2 -8,-2 -15,-10 -26,-23 -33,-41 -7,-17 -11,-41 -11,-73 0,-24 8,-52 23,-85 1,-2 2,-5 3,-8 1,-3 2,-6 5,-8 3,-2 4,-4 4,-6 12,-14 19,-23 22,-26 2,-3 7,-7 16,-10 8,-3 14,-8 16,-12 1,-1 2,-2 4,-2 2,0 3,1 4,1l2 0c1,-1 2,-3 3,-4 1,-1 2,-2 2,-1 1,0 6,-2 16,-5 10,-4 16,-5 18,-5 2,0 8,0 19,-2l14 -3c3,0 7,1 12,2 5,1 8,2 9,2 26,3 43,7 50,12zm6 224c17,-33 26,-63 26,-91 0,-19 -2,-36 -6,-50 -4,-15 -10,-28 -18,-38 -8,-10 -17,-19 -28,-25 -11,-6 -24,-11 -40,-13 -16,-2 -26,-3 -29,-3 0,0 -2,1 -4,2 -2,2 -4,4 -6,6 -2,1 -4,1 -7,1l-7 0c-5,0 -9,2 -12,7 0,0 -1,0 -1,0 -1,0 -1,-1 -2,-2l-3 2 0 3c0,0 -1,-1 -1,-2 -1,-1 -1,-2 -2,-2l-1 0c-14,5 -21,9 -24,12 -3,1 -6,2 -8,2 -2,2 -4,5 -8,10 -4,5 -6,9 -9,11 -2,3 -4,5 -6,7 -2,2 -3,5 -3,10 -7,7 -13,19 -18,36 -4,17 -7,34 -7,52 0,17 2,31 7,45 5,13 11,22 17,25l0 5c4,5 9,10 14,15 5,5 12,9 22,12 10,4 18,6 24,8 7,2 14,4 22,5 8,1 16,2 25,2 5,0 9,0 12,0l15 -4c5,-1 8,-2 11,-2 1,0 5,-3 11,-7l15 -9c1,-1 2,-2 3,-2 1,-1 1,-3 1,-4l0 -2c1,-2 3,-4 8,-7 5,-3 9,-5 11,-7 3,-2 4,-4 4,-6 0,-2 0,-4 -1,-5z"/>
    <path class="fil0 str1" d="M9111 5284c1,0 5,0 10,1 5,1 9,1 14,1l49 -1 19 1c3,0 8,-1 16,-2 8,-1 14,-2 19,-2 8,0 12,2 12,6 0,0 -1,3 -2,9 -1,6 -3,10 -5,11 -2,1 -5,2 -10,2 -1,0 -5,0 -13,-1 -11,-7 -34,-10 -70,-10 -6,0 -14,0 -23,1 -9,0 -14,1 -16,2 -1,1 -3,2 -5,3 -2,7 -4,20 -5,39 -2,19 -3,29 -3,32 0,7 1,13 3,19 2,6 3,11 4,15 0,4 4,6 10,6l3 0c2,0 2,0 3,0 0,0 1,1 3,2 2,1 4,2 7,2 3,0 7,0 13,-1 6,-1 10,-1 13,-1 1,0 2,0 4,0 2,0 3,0 4,0 4,0 7,-1 10,-3l12 1c2,-1 10,-3 24,-4 0,1 0,2 0,4 0,1 0,3 0,6 0,3 0,5 0,6 0,2 0,4 0,5 -2,7 -8,10 -17,10 -2,0 -7,-1 -12,-3 -6,-2 -12,-3 -18,-3l-13 0c-3,0 -9,0 -17,-1 -8,-1 -14,-1 -19,-1l-6 0c-4,3 -7,5 -8,7 -1,2 -3,7 -5,17 -2,9 -2,19 -2,30 0,8 1,19 2,34 1,15 2,27 2,35 1,8 1,12 1,13 0,0 1,1 3,1 2,1 3,1 3,2l13 0c7,0 17,-1 30,-2l19 -2 6 1c2,0 4,0 8,0 12,0 30,-3 54,-8 4,-2 7,-4 9,-4 2,0 3,2 3,5l-2 9 0 8c0,5 -1,9 -4,10 -2,1 -7,2 -15,2 -5,0 -14,0 -26,-1 -13,-2 -25,-4 -37,-4l-53 1 -7 0c-2,-2 -4,-2 -5,-2 -1,0 -2,0 -2,1 -1,1 -2,1 -3,1 -1,0 -2,-1 -3,-1 -2,0 -4,1 -6,3 -4,0 -7,2 -9,4l-2 0c-2,0 -4,-1 -6,-3 1,-2 2,-4 2,-5l0 -4c0,-2 0,-4 1,-5 -1,0 -1,-1 -1,-2 0,-1 0,-3 1,-7 3,-25 4,-51 4,-78l0 -45 1 -32 0 -11 0 -60c0,-15 0,-27 -1,-38 -2,-9 -4,-14 -4,-16 0,-1 1,-3 2,-4 1,-1 8,-3 18,-6l1 -3 4 2 3 -1c4,0 8,1 12,4z"/>
   </g>
  </g>
 </g>
</svg>
